Coordinates
version=1
nRows=15
nColumns=27
inDegrees=yes

Units are S.I. units (second, meters, Newtons, ...)
If the header above contains a line with 'inDegrees', this indicates whether rotational values are in degrees (yes) or radians (no).

endheader
time	pelvis_rotation	pelvis_tilt	pelvis_list	pelvis_tx	pelvis_ty	pelvis_tz	hip_flexion_r	hip_adduction_r	hip_rotation_r	knee_angle_r	knee_rotation_r	knee_adduction_r	knee_angle_r_beta	ankle_angle_r	subtalar_angle_r	mtp_angle_r	hip_flexion_l	hip_adduction_l	hip_rotation_l	knee_angle_l	knee_rotation_l	knee_adduction_l	knee_angle_l_beta	ankle_angle_l	subtalar_angle_l	mtp_angle_l
      4.78500000	      5.23942115	    -23.63800795	      2.34978033	     -0.00350017	      0.44746176	     -1.14052244	    118.70448988	    -44.60114347	     27.17594704	    108.22979129	      0.00000000	      0.00000000	      1.88896621	     16.94018972	      0.00000000	      0.00000000	    116.49583078	    -34.11587681	     22.97840672	    102.04479459	      0.00000000	      0.00000000	      1.78101765	      8.57136635	      0.00000000	      0.00000000
      4.79000000	      5.19092461	    -23.54427129	      2.37728508	     -0.00323345	      0.44617475	     -1.14055847	    118.81777629	    -44.48100035	     27.40474643	    108.39833330	      0.00000000	      0.00000000	      1.89190782	     17.01927296	      0.00000000	      0.00000000	    116.57648011	    -34.18570835	     23.08181833	    102.21715462	      0.00000000	      0.00000000	      1.78402590	      8.62231286	      0.00000000	      0.00000000
      4.79500000	      5.22847646	    -23.43237620	      2.35534405	     -0.00296866	      0.44494889	     -1.14063125	    118.87749793	    -44.51069428	     27.57146485	    108.55515154	      0.00000000	      0.00000000	      1.89464481	     17.08517257	      0.00000000	      0.00000000	    116.65496877	    -34.11625410	     23.22850704	    102.38607243	      0.00000000	      0.00000000	      1.78697407	      8.70181749	      0.00000000	      0.00000000
      4.80000000	      5.11967343	    -23.38399074	      2.34757685	     -0.00277986	      0.44373930	     -1.14062594	    118.97192855	    -44.32697885	     27.72512150	    108.71234898	      0.00000000	      0.00000000	      1.89738843	     17.15839228	      0.00000000	      0.00000000	    116.81065185	    -34.24103496	     23.37980123	    102.54978292	      0.00000000	      0.00000000	      1.78983136	      8.72829027	      0.00000000	      0.00000000
      4.80500000	      5.24047071	    -23.27279835	      2.30907749	     -0.00255350	      0.44255318	     -1.14074705	    119.03961703	    -44.48418600	     27.87386182	    108.84950153	      0.00000000	      0.00000000	      1.89978219	     17.21001893	      0.00000000	      0.00000000	    116.90126396	    -34.06369280	     23.53274909	    102.71578880	      0.00000000	      0.00000000	      1.79272871	      8.82331748	      0.00000000	      0.00000000
      4.81000000	      5.12497561	    -23.24405049	      2.32771217	     -0.00239399	      0.44143283	     -1.14073900	    119.17755997	    -44.28554433	     28.05339784	    109.00233691	      0.00000000	      0.00000000	      1.90244967	     17.26569181	      0.00000000	      0.00000000	    117.04270436	    -34.21830658	     23.63885596	    102.85959835	      0.00000000	      0.00000000	      1.79523866	      8.82302322	      0.00000000	      0.00000000
      4.81500000	      5.13290189	    -23.19383073	      2.31484675	     -0.00224183	      0.44035810	     -1.14080135	    119.29261440	    -44.27794770	     28.20469722	    109.13569591	      0.00000000	      0.00000000	      1.90477723	     17.30809775	      0.00000000	      0.00000000	    117.17726851	    -34.20425112	     23.76242542	    103.00634406	      0.00000000	      0.00000000	      1.79779985	      8.86168977	      0.00000000	      0.00000000
      4.82000000	      5.13795302	    -23.15517516	      2.31184198	     -0.00211737	      0.43928810	     -1.14086040	    119.43099979	    -44.26175667	     28.36564378	    109.26559794	      0.00000000	      0.00000000	      1.90704444	     17.35307564	      0.00000000	      0.00000000	    117.31727255	    -34.20117189	     23.87345224	    103.14644657	      0.00000000	      0.00000000	      1.80024510	      8.89259136	      0.00000000	      0.00000000
      4.82500000	      5.17407458	    -23.12844120	      2.25998328	     -0.00202046	      0.43830596	     -1.14093580	    119.52919338	    -44.32317191	     28.45066999	    109.37767442	      0.00000000	      0.00000000	      1.90900055	     17.38672327	      0.00000000	      0.00000000	    117.49671218	    -34.13337235	     24.03055436	    103.28475125	      0.00000000	      0.00000000	      1.80265898	      8.93916069	      0.00000000	      0.00000000
      4.83000000	      5.20371033	    -23.18061948	      2.29379344	     -0.00193231	      0.43725474	     -1.14098199	    119.82201562	    -44.31596223	     28.67068608	    109.52000300	      0.00000000	      0.00000000	      1.91148465	     17.39114191	      0.00000000	      0.00000000	    117.71782622	    -34.13882928	     24.09978066	    103.41600321	      0.00000000	      0.00000000	      1.80494976	      8.89728170	      0.00000000	      0.00000000
      4.83500000	      5.22413799	    -23.12713192	      2.27609235	     -0.00194928	      0.43635882	     -1.14107861	    119.92584169	    -44.32939550	     28.80259296	    109.61127363	      0.00000000	      0.00000000	      1.91307762	     17.35589791	      0.00000000	      0.00000000	    117.83848508	    -34.10381239	     24.20141614	    103.53148462	      0.00000000	      0.00000000	      1.80696529	      8.89767334	      0.00000000	      0.00000000
      4.84000000	      5.22019879	    -23.10761430	      2.27507350	     -0.00191335	      0.43553244	     -1.14112313	    120.06467183	    -44.32029351	     28.92294310	    109.70696981	      0.00000000	      0.00000000	      1.91474784	     17.37117398	      0.00000000	      0.00000000	    117.96882678	    -34.12495089	     24.27885886	    103.62966813	      0.00000000	      0.00000000	      1.80867891	      8.86101458	      0.00000000	      0.00000000
      4.84500000	      5.17884773	    -23.16122726	      2.29070722	     -0.00194442	      0.43468218	     -1.14118095	    120.27521964	    -44.23992626	     29.06092630	    109.81005743	      0.00000000	      0.00000000	      1.91654705	     17.48390668	      0.00000000	      0.00000000	    118.18074655	    -34.19610091	     24.34361484	    103.74334227	      0.00000000	      0.00000000	      1.81066290	      8.90100943	      0.00000000	      0.00000000
      4.85000000	      5.30235686	    -23.16290550	      2.14803667	     -0.00195700	      0.43392979	     -1.14127132	    120.31122158	    -44.48390959	     29.00481633	    109.87543453	      0.00000000	      0.00000000	      1.91768810	     17.44007865	      0.00000000	      0.00000000	    118.43509053	    -33.97158557	     24.57796823	    103.85756158	      0.00000000	      0.00000000	      1.81265640	      8.85003423	      0.00000000	      0.00000000
      4.85500000	      5.25196391	    -23.21980173	      2.24707630	     -0.00202876	      0.43317526	     -1.14132566	    120.62430582	    -44.33746055	     29.25636012	    109.97478467	      0.00000000	      0.00000000	      1.91942209	     17.41891099	      0.00000000	      0.00000000	    118.57470759	    -34.10690304	     24.53413671	    103.94072372	      0.00000000	      0.00000000	      1.81410786	      8.82142662	      0.00000000	      0.00000000
